<svg xmlns="http://www.w3.org/2000/svg" xmlns:xlink="http://www.w3.org/1999/xlink" preserveAspectRatio="xMidYMid" width="125" height="24" viewBox="0 0 125 24">
  <defs>
    <style>
      .cls-1 {
        fill: #fff;
      }

      .cls-1, .cls-2 {
        fill-rule: evenodd;
      }

      .cls-2 {
        fill: #ff7555;
      }
    </style>
  </defs>
  <g>
    <path d="M123.216,5.719 C122.280,5.719 121.536,4.927 121.536,4.039 C121.536,3.151 122.280,2.382 123.216,2.382 C124.128,2.382 124.872,3.151 124.872,4.039 C124.872,4.927 124.128,5.719 123.216,5.719 ZM115.753,12.679 C115.753,10.999 114.673,9.799 113.137,9.799 C111.601,9.799 110.328,10.831 110.136,12.151 L110.136,20.000 L107.208,20.000 L107.208,7.591 L110.136,7.591 L110.136,9.247 C110.904,8.095 112.345,7.303 113.977,7.303 C116.689,7.303 118.585,9.295 118.585,12.103 L118.585,20.000 L115.753,20.000 L115.753,12.679 ZM99.473,17.696 C100.625,17.696 101.993,17.168 102.689,16.448 L104.537,18.368 C103.457,19.520 101.297,20.288 99.497,20.288 C95.944,20.288 93.016,17.576 93.016,13.759 C93.016,10.039 95.800,7.303 99.329,7.303 C103.169,7.303 105.401,10.207 105.401,14.792 L96.040,14.792 C96.400,16.496 97.696,17.696 99.473,17.696 ZM102.593,12.559 C102.257,10.999 101.201,9.895 99.449,9.895 C97.816,9.895 96.496,10.927 96.064,12.559 L102.593,12.559 ZM85.320,20.000 L79.992,7.591 L83.088,7.591 L86.689,16.616 L90.217,7.591 L93.337,7.591 L88.081,20.000 L85.320,20.000 ZM73.433,17.696 C74.585,17.696 75.953,17.168 76.649,16.448 L78.497,18.368 C77.417,19.520 75.257,20.288 73.457,20.288 C69.904,20.288 66.976,17.576 66.976,13.759 C66.976,10.039 69.760,7.303 73.289,7.303 C77.129,7.303 79.361,10.207 79.361,14.792 L70.000,14.792 C70.360,16.496 71.656,17.696 73.433,17.696 ZM76.553,12.559 C76.217,10.999 75.161,9.895 73.409,9.895 C71.776,9.895 70.456,10.927 70.024,12.559 L76.553,12.559 ZM59.129,20.288 C55.528,20.288 52.480,17.312 52.480,13.783 C52.480,10.255 55.528,7.303 59.129,7.303 C62.729,7.303 65.777,10.255 65.777,13.783 C65.777,17.312 62.729,20.288 59.129,20.288 ZM59.129,9.799 C57.064,9.799 55.336,11.623 55.336,13.783 C55.336,15.968 57.064,17.792 59.129,17.792 C61.169,17.792 62.897,15.968 62.897,13.783 C62.897,11.623 61.169,9.799 59.129,9.799 ZM43.793,20.288 C39.064,20.288 35.080,16.376 35.080,11.743 C35.080,7.111 39.064,3.223 43.793,3.223 C46.193,3.223 48.761,4.231 50.345,5.887 L48.209,7.879 C47.177,6.679 45.401,5.959 43.793,5.959 C40.721,5.959 38.128,8.599 38.128,11.743 C38.128,14.912 40.721,17.552 43.793,17.552 C45.041,17.552 46.385,17.120 47.417,16.376 L47.417,13.375 L43.313,13.375 L43.313,10.927 L50.345,10.927 L50.345,17.600 C48.761,19.256 46.193,20.288 43.793,20.288 ZM124.656,20.000 L121.728,20.000 L121.728,7.591 L124.656,7.591 L124.656,20.000 Z" class="cls-1"/>
    <path d="M11.999,24.000 C11.999,17.372 17.372,12.000 24.000,12.000 C24.000,18.627 18.627,24.000 11.999,24.000 ZM-0.001,12.000 L-0.001,-0.001 C6.626,-0.001 11.999,5.372 11.999,12.000 L11.999,24.000 C5.372,24.000 -0.001,18.627 -0.001,12.000 ZM11.999,-0.001 C18.627,-0.001 24.000,5.372 24.000,12.000 C17.372,12.000 11.999,6.627 11.999,-0.001 Z" class="cls-2"/>
  </g>
</svg>
